<?xml version="1.0" encoding="utf-8"?>
<!-- Generator: Adobe Illustrator 20.0.0, SVG Export Plug-In . SVG Version: 6.00 Build 0)  -->
<svg version="1.1" id="Layer_1" xmlns="http://www.w3.org/2000/svg" xmlns:xlink="http://www.w3.org/1999/xlink" x="0px" y="0px"
	 width="180px" height="75px" viewBox="0 0 180 75" style="enable-background:new 0 0 180 75;" xml:space="preserve">
<style type="text/css">
	.st0{fill:#FFFFFF;}
	.st1{fill:url(#SVGID_1_);}
	.st2{fill:url(#SVGID_2_);}
	.st3{fill:url(#SVGID_3_);}
</style>
<g>
	<g>
		<path class="st0" d="M149.7,12.1 M140.4,59.7h-9.3l-16.5-47.7h10.8l15,47.4"/>
	</g>
	<g>
		<path class="st0" d="M60.7,11.8L47.1,59.5h-9.3L30.4,23L23,59.5h-9.4L0,11.8h10.2l8.1,33.6l7-33.6h10.4l6.9,33.6l7.2-29.9
			c0.8-2.5,2.5-3.7,4.9-3.7H60.7z"/>
		<path class="st0" d="M72.6,11.8h4.8v19.6l18.6-19.6h12.3l-19,19.4l20.7,28.3H98.2L86.1,42.7c-2.1-2.8-4.1-3.9-5.9-3.3
			c-1.8,0.6-2.7,1.8-2.7,3.4v16.7h-9.7V16.9C67.7,14.2,69.9,11.8,72.6,11.8z"/>
	</g>
	<g>
		<path class="st0" d="M20.5,65.9c0.5,0.4,0.9,0.9,1.1,1.6h-0.9c-0.2-0.4-0.4-0.7-0.8-1c-0.4-0.3-0.8-0.4-1.3-0.4
			c-0.5,0-0.9,0.1-1.3,0.3c-0.4,0.2-0.7,0.5-0.9,0.9c-0.2,0.4-0.3,0.9-0.3,1.4c0,0.6,0.1,1,0.3,1.4c0.2,0.4,0.5,0.7,0.9,0.9
			c0.4,0.2,0.8,0.3,1.3,0.3c0.4,0,0.8-0.1,1.2-0.3c0.4-0.2,0.6-0.4,0.9-0.8c0.2-0.3,0.4-0.8,0.4-1.2h-2.7v-0.7h3.4v0.8
			c-0.1,0.5-0.2,1-0.5,1.5c-0.3,0.4-0.7,0.8-1.1,1.1c-0.5,0.3-1,0.4-1.6,0.4c-0.7,0-1.2-0.1-1.8-0.4c-0.5-0.3-0.9-0.7-1.2-1.2
			c-0.3-0.5-0.4-1.1-0.4-1.8c0-0.7,0.1-1.3,0.4-1.8c0.3-0.5,0.7-0.9,1.2-1.2c0.5-0.3,1.1-0.4,1.7-0.4C19.3,65.3,20,65.5,20.5,65.9z"
			/>
		<path class="st0" d="M26,67.1c0.3-0.2,0.7-0.3,1.2-0.3v1h-0.3c-0.5,0-0.9,0.1-1.2,0.4c-0.3,0.3-0.5,0.7-0.5,1.3v2.8h-0.9v-5.3h0.9
			V68C25.4,67.6,25.6,67.3,26,67.1z"/>
		<path class="st0" d="M33.2,67.2c0.4,0.2,0.7,0.5,1,1c0.2,0.4,0.3,0.9,0.3,1.5c0,0.6-0.1,1-0.3,1.5c-0.2,0.4-0.5,0.7-1,0.9
			c-0.4,0.2-0.9,0.3-1.4,0.3c-0.5,0-1-0.1-1.4-0.3c-0.4-0.2-0.7-0.5-1-0.9c-0.2-0.4-0.4-0.9-0.4-1.5c0-0.6,0.1-1,0.4-1.5
			c0.2-0.4,0.6-0.7,1-1c0.4-0.2,0.9-0.3,1.4-0.3C32.3,66.8,32.8,66.9,33.2,67.2z M30.9,67.8c-0.3,0.1-0.5,0.4-0.7,0.7
			c-0.2,0.3-0.2,0.7-0.2,1.1c0,0.4,0.1,0.8,0.2,1.1c0.2,0.3,0.4,0.5,0.7,0.7c0.3,0.1,0.6,0.2,0.9,0.2c0.3,0,0.6-0.1,0.9-0.2
			c0.3-0.1,0.5-0.4,0.7-0.7c0.2-0.3,0.2-0.7,0.2-1.1c0-0.4-0.1-0.8-0.2-1.1c-0.2-0.3-0.4-0.5-0.7-0.7c-0.3-0.1-0.6-0.2-0.9-0.2
			C31.5,67.6,31.2,67.7,30.9,67.8z"/>
		<path class="st0" d="M41.8,66.9v5.3h-0.9V71c-0.1,0.4-0.4,0.8-0.7,1s-0.8,0.3-1.2,0.3c-0.6,0-1.1-0.2-1.5-0.6
			c-0.4-0.4-0.6-1-0.6-1.7v-3.1h0.9v3c0,0.5,0.1,0.9,0.4,1.2c0.3,0.3,0.6,0.4,1.1,0.4c0.5,0,0.9-0.2,1.2-0.5
			c0.3-0.3,0.4-0.8,0.4-1.4v-2.8H41.8z"/>
		<path class="st0" d="M48.8,67.2c0.4,0.2,0.7,0.5,0.9,1c0.2,0.4,0.3,0.9,0.3,1.5c0,0.6-0.1,1-0.3,1.5c-0.2,0.4-0.5,0.7-0.9,0.9
			c-0.4,0.2-0.8,0.3-1.3,0.3c-0.5,0-1-0.1-1.3-0.4c-0.4-0.3-0.6-0.6-0.7-1v3.9h-0.9v-7.9h0.9v1.4c0.1-0.4,0.4-0.8,0.7-1
			c0.4-0.3,0.8-0.4,1.3-0.4C48,66.8,48.4,66.9,48.8,67.2z M46.3,67.9c-0.3,0.2-0.5,0.4-0.7,0.7c-0.2,0.3-0.2,0.6-0.2,1
			c0,0.4,0.1,0.7,0.2,1s0.4,0.5,0.7,0.7c0.3,0.2,0.6,0.2,0.9,0.2c0.6,0,1-0.2,1.3-0.5c0.3-0.3,0.5-0.8,0.5-1.4
			c0-0.6-0.2-1.1-0.5-1.4c-0.3-0.3-0.8-0.5-1.3-0.5C46.9,67.6,46.6,67.7,46.3,67.9z"/>
		<path class="st0" d="M60,67.2c0.4,0.2,0.7,0.5,1,1c0.2,0.4,0.3,0.9,0.3,1.5c0,0.6-0.1,1-0.3,1.5c-0.2,0.4-0.5,0.7-1,0.9
			c-0.4,0.2-0.9,0.3-1.4,0.3s-1-0.1-1.4-0.3c-0.4-0.2-0.7-0.5-1-0.9c-0.2-0.4-0.4-0.9-0.4-1.5c0-0.6,0.1-1,0.4-1.5
			c0.2-0.4,0.6-0.7,1-1c0.4-0.2,0.9-0.3,1.4-0.3S59.6,66.9,60,67.2z M57.8,67.8c-0.3,0.1-0.5,0.4-0.7,0.7c-0.2,0.3-0.2,0.7-0.2,1.1
			c0,0.4,0.1,0.8,0.2,1.1c0.2,0.3,0.4,0.5,0.7,0.7c0.3,0.1,0.6,0.2,0.9,0.2s0.6-0.1,0.9-0.2c0.3-0.1,0.5-0.4,0.7-0.7
			c0.2-0.3,0.2-0.7,0.2-1.1c0-0.4-0.1-0.8-0.2-1.1c-0.2-0.3-0.4-0.5-0.7-0.7c-0.3-0.1-0.6-0.2-0.9-0.2S58,67.7,57.8,67.8z"/>
		<path class="st0" d="M65.2,65.9c-0.2,0.2-0.3,0.5-0.3,0.9v0.1h1.3v0.8h-1.3v4.6h-0.9v-4.6h-0.8v-0.8h0.8v-0.2
			c0-1.3,0.7-1.9,2.1-1.8v0.8C65.7,65.6,65.4,65.7,65.2,65.9z"/>
		<path class="st0" d="M77.4,65.9c0.5,0.4,0.9,1,1.1,1.7h-0.9c-0.2-0.5-0.5-0.8-0.8-1.1c-0.4-0.3-0.9-0.4-1.4-0.4
			c-0.4,0-0.8,0.1-1.2,0.3c-0.4,0.2-0.6,0.5-0.8,0.9c-0.2,0.4-0.3,0.9-0.3,1.4c0,0.5,0.1,1,0.3,1.4c0.2,0.4,0.5,0.7,0.8,0.9
			c0.4,0.2,0.8,0.3,1.2,0.3c0.6,0,1-0.1,1.4-0.4c0.4-0.3,0.7-0.6,0.8-1.1h0.9c-0.2,0.7-0.6,1.3-1.1,1.7c-0.5,0.4-1.2,0.6-2.1,0.6
			c-0.6,0-1.2-0.1-1.7-0.4s-0.9-0.7-1.2-1.2c-0.3-0.5-0.4-1.1-0.4-1.8c0-0.7,0.1-1.3,0.4-1.8c0.3-0.5,0.7-0.9,1.2-1.2
			c0.5-0.3,1.1-0.4,1.7-0.4C76.2,65.3,76.9,65.5,77.4,65.9z"/>
		<path class="st0" d="M84.9,67.2c0.4,0.2,0.7,0.5,1,1c0.2,0.4,0.3,0.9,0.3,1.5c0,0.6-0.1,1-0.3,1.5c-0.2,0.4-0.5,0.7-1,0.9
			c-0.4,0.2-0.9,0.3-1.4,0.3c-0.5,0-1-0.1-1.4-0.3c-0.4-0.2-0.7-0.5-1-0.9c-0.2-0.4-0.4-0.9-0.4-1.5c0-0.6,0.1-1,0.4-1.5
			c0.2-0.4,0.6-0.7,1-1c0.4-0.2,0.9-0.3,1.4-0.3C84,66.8,84.5,66.9,84.9,67.2z M82.6,67.8c-0.3,0.1-0.5,0.4-0.7,0.7
			c-0.2,0.3-0.2,0.7-0.2,1.1c0,0.4,0.1,0.8,0.2,1.1c0.2,0.3,0.4,0.5,0.7,0.7c0.3,0.1,0.6,0.2,0.9,0.2c0.3,0,0.6-0.1,0.9-0.2
			c0.3-0.1,0.5-0.4,0.7-0.7c0.2-0.3,0.2-0.7,0.2-1.1c0-0.4-0.1-0.8-0.2-1.1c-0.2-0.3-0.4-0.5-0.7-0.7c-0.3-0.1-0.6-0.2-0.9-0.2
			C83.2,67.6,82.9,67.7,82.6,67.8z"/>
		<path class="st0" d="M96.8,67.4c0.4,0.4,0.6,1,0.6,1.7v3.1h-0.9v-3c0-0.5-0.1-0.9-0.4-1.2c-0.3-0.3-0.6-0.4-1.1-0.4
			c-0.5,0-0.8,0.2-1.1,0.5c-0.3,0.3-0.4,0.8-0.4,1.4v2.8h-0.9v-3c0-0.5-0.1-0.9-0.4-1.2c-0.3-0.3-0.6-0.4-1.1-0.4
			c-0.5,0-0.9,0.2-1.1,0.5c-0.3,0.3-0.4,0.8-0.4,1.4v2.8h-0.9v-5.3h0.9v1.2c0.1-0.4,0.4-0.7,0.7-1c0.3-0.2,0.7-0.3,1.2-0.3
			c0.5,0,0.8,0.1,1.2,0.3c0.3,0.2,0.6,0.6,0.7,1c0.1-0.4,0.4-0.8,0.7-1c0.3-0.2,0.7-0.4,1.2-0.4C95.9,66.8,96.4,67,96.8,67.4z"/>
		<path class="st0" d="M104.3,67.2c0.4,0.2,0.7,0.5,0.9,1c0.2,0.4,0.3,0.9,0.3,1.5c0,0.6-0.1,1-0.3,1.5c-0.2,0.4-0.5,0.7-0.9,0.9
			c-0.4,0.2-0.8,0.3-1.3,0.3c-0.5,0-1-0.1-1.3-0.4c-0.4-0.3-0.6-0.6-0.7-1v3.9h-0.9v-7.9h0.9v1.4c0.1-0.4,0.4-0.8,0.7-1
			c0.4-0.3,0.8-0.4,1.3-0.4C103.5,66.8,103.9,66.9,104.3,67.2z M101.8,67.9c-0.3,0.2-0.5,0.4-0.7,0.7c-0.2,0.3-0.2,0.6-0.2,1
			c0,0.4,0.1,0.7,0.2,1s0.4,0.5,0.7,0.7c0.3,0.2,0.6,0.2,0.9,0.2c0.6,0,1-0.2,1.3-0.5c0.3-0.3,0.5-0.8,0.5-1.4
			c0-0.6-0.2-1.1-0.5-1.4c-0.3-0.3-0.8-0.5-1.3-0.5C102.4,67.6,102.1,67.7,101.8,67.9z"/>
		<path class="st0" d="M111.5,67.2c0.4,0.3,0.6,0.6,0.8,1v-1.4h0.9v5.3h-0.9v-1.4c-0.1,0.4-0.4,0.8-0.8,1c-0.4,0.3-0.8,0.4-1.3,0.4
			c-0.5,0-0.9-0.1-1.3-0.3c-0.4-0.2-0.7-0.5-0.9-0.9c-0.2-0.4-0.3-0.9-0.3-1.5c0-0.6,0.1-1,0.3-1.5c0.2-0.4,0.5-0.7,0.9-1
			c0.4-0.2,0.8-0.3,1.3-0.3C110.7,66.8,111.1,67,111.5,67.2z M109.1,68.1c-0.3,0.3-0.5,0.8-0.5,1.4c0,0.6,0.2,1.1,0.5,1.4
			c0.3,0.3,0.8,0.5,1.3,0.5c0.3,0,0.7-0.1,0.9-0.2c0.3-0.2,0.5-0.4,0.6-0.7s0.2-0.6,0.2-1c0-0.4-0.1-0.7-0.2-1
			c-0.2-0.3-0.4-0.5-0.6-0.7c-0.3-0.2-0.6-0.2-0.9-0.2C109.9,67.6,109.4,67.8,109.1,68.1z"/>
		<path class="st0" d="M120.2,67.4c0.4,0.4,0.6,1,0.6,1.7v3.1h-0.9v-3c0-0.5-0.1-0.9-0.4-1.2c-0.3-0.3-0.6-0.4-1.1-0.4
			c-0.5,0-0.9,0.2-1.2,0.5c-0.3,0.3-0.4,0.8-0.4,1.4v2.8h-0.9v-5.3h0.9v1.3c0.1-0.4,0.4-0.8,0.7-1c0.3-0.2,0.7-0.4,1.2-0.4
			C119.3,66.8,119.8,67,120.2,67.4z"/>
		<path class="st0" d="M123.5,64.9c0.1-0.1,0.3-0.2,0.4-0.2c0.2,0,0.3,0.1,0.4,0.2c0.1,0.1,0.2,0.2,0.2,0.4s-0.1,0.3-0.2,0.4
			c-0.1,0.1-0.3,0.2-0.4,0.2c-0.2,0-0.3-0.1-0.4-0.2c-0.1-0.1-0.2-0.2-0.2-0.4S123.4,65,123.5,64.9z M124.4,66.9v5.3h-0.9v-5.3
			H124.4z"/>
		<path class="st0" d="M132,69.8h-4.3c0,0.6,0.2,1.1,0.5,1.4c0.3,0.3,0.7,0.5,1.2,0.5c0.4,0,0.8-0.1,1.1-0.3
			c0.3-0.2,0.5-0.5,0.5-0.9h0.9c-0.1,0.4-0.2,0.7-0.4,1c-0.2,0.3-0.5,0.5-0.9,0.7s-0.8,0.2-1.2,0.2c-0.5,0-1-0.1-1.4-0.3
			c-0.4-0.2-0.7-0.5-0.9-0.9c-0.2-0.4-0.3-0.9-0.3-1.5c0-0.6,0.1-1,0.3-1.5c0.2-0.4,0.5-0.7,0.9-1c0.4-0.2,0.8-0.3,1.4-0.3
			c0.5,0,1,0.1,1.4,0.3c0.4,0.2,0.7,0.5,0.9,0.9c0.2,0.4,0.3,0.8,0.3,1.2C132.1,69.5,132.1,69.6,132,69.8z M131,68.3
			c-0.1-0.3-0.4-0.5-0.6-0.6c-0.3-0.1-0.5-0.2-0.8-0.2c-0.5,0-0.9,0.2-1.2,0.5c-0.3,0.3-0.5,0.7-0.5,1.3h3.4
			C131.2,68.9,131.1,68.6,131,68.3z"/>
		<path class="st0" d="M137.7,67.3c0.4,0.3,0.6,0.7,0.7,1.3h-0.8c0-0.3-0.2-0.6-0.4-0.8c-0.2-0.2-0.5-0.3-0.9-0.3
			c-0.3,0-0.6,0.1-0.7,0.2c-0.2,0.2-0.3,0.4-0.3,0.6c0,0.2,0.1,0.4,0.2,0.5s0.3,0.2,0.4,0.3c0.2,0.1,0.4,0.1,0.7,0.2
			c0.4,0.1,0.7,0.2,1,0.3c0.2,0.1,0.5,0.2,0.6,0.5c0.2,0.2,0.3,0.5,0.3,0.8c0,0.4-0.2,0.8-0.5,1.1c-0.3,0.3-0.8,0.4-1.3,0.4
			c-0.6,0-1.2-0.2-1.6-0.5c-0.4-0.3-0.6-0.7-0.7-1.3h0.9c0,0.3,0.2,0.6,0.4,0.8c0.3,0.2,0.6,0.3,1,0.3c0.3,0,0.5-0.1,0.7-0.2
			c0.2-0.2,0.3-0.4,0.3-0.6c0-0.2-0.1-0.4-0.2-0.5c-0.1-0.1-0.3-0.2-0.5-0.3c-0.2-0.1-0.4-0.1-0.7-0.2c-0.4-0.1-0.7-0.2-0.9-0.3
			s-0.4-0.2-0.6-0.4c-0.2-0.2-0.2-0.5-0.2-0.8c0-0.4,0.2-0.8,0.5-1.1c0.3-0.3,0.8-0.4,1.4-0.4C136.9,66.8,137.4,67,137.7,67.3z"/>
	</g>
	<linearGradient id="SVGID_1_" gradientUnits="userSpaceOnUse" x1="134.0373" y1="23.0371" x2="171.0098" y2="23.0371">
		<stop  offset="0" style="stop-color:#DB0253"/>
		<stop  offset="1" style="stop-color:#FFB000"/>
	</linearGradient>
	<path class="st1" d="M136.2,45.8c0,0-1.6-15.7-2.1-22s2.1-12.4,16-12.4c10.4,0,19.4-3.7,20.9-11.1c0,0,0.7,13.2-9.4,17.2
		S136.2,45.8,136.2,45.8L136.2,45.8z"/>
	<linearGradient id="SVGID_2_" gradientUnits="userSpaceOnUse" x1="175.6685" y1="31.5385" x2="136.2636" y2="31.5385">
		<stop  offset="0" style="stop-color:#13EAEB"/>
		<stop  offset="1" style="stop-color:#136AD5"/>
	</linearGradient>
	<path class="st2" d="M136.3,45.6l2.1-22c0,0,0.8-7.5,9.9-9.2s21-1.1,27.4-10.8c0,0,0.3,16.8-9.1,19.7c-9,2.8-14.9,3.1-18,10.8
		c-2,4.9-8.1,25.4-8.1,25.4L136.3,45.6z"/>
	<linearGradient id="SVGID_3_" gradientUnits="userSpaceOnUse" x1="158.0861" y1="59.4947" x2="158.0861" y2="5.9549">
		<stop  offset="0" style="stop-color:#5C9C1E"/>
		<stop  offset="0.1654" style="stop-color:#78AE26"/>
		<stop  offset="0.3684" style="stop-color:#93C02F"/>
		<stop  offset="0.5745" style="stop-color:#A7CD34"/>
		<stop  offset="0.7836" style="stop-color:#B2D438"/>
		<stop  offset="1" style="stop-color:#B6D739"/>
	</linearGradient>
	<path class="st3" d="M136.2,45.8l5-19.1c0,0,1.7-8,10.7-9.7C161,15.4,176.1,13.4,180,6c0,0-4.1,14.2-13.4,17.3s-14.4,3.6-16.3,8.6
		s-9.8,27.6-9.8,27.6L136.2,45.8z"/>
</g>
</svg>
